<?xml version="1.0" encoding="UTF-8"?>
<svg xmlns="http://www.w3.org/2000/svg" width="137.8mm" height="21.5mm" version="1.1" viewBox="0 0 390.6 61">
  <!-- Generator: Adobe Illustrator 28.7.1, SVG Export Plug-In . SVG Version: 1.2.0 Build 142)  -->
  <g>
    <g id="_レイヤー_1" data-name="レイヤー_1">
      <g>
        <path d="M16.2,16.6h7.8v2h-7.4c-2.6,0-4.3.2-4.3,3.3v12.1c0,3.2,1.6,3.3,4.3,3.3h7.4v2.1h-7.8c-3.5,0-6.3-1-6.3-5v-12.7c0-4.1,2.8-5,6.3-5Z" fill="#fff" stroke="#fff" stroke-miterlimit="10" stroke-width=".5"/>
        <path d="M39.1,26.8c0-2.1-1.1-3.2-3.1-3.2s-4.8,1.7-5.9,3.3v12.5h-2.4V15.6h2.3v9c1.6-1.7,4-3,6.6-3s4.8,1.9,4.8,5.2v12.6h-2.4v-12.5Z" fill="#fff" stroke="#fff" stroke-miterlimit="10" stroke-width=".5"/>
        <path d="M59.4,26.6v.9c0,3.7-2.9,4.6-6.1,4.6h-5.5c0,.8,0,1.5,0,2.2,0,.6,0,1.2.3,1.7.4.9,1.3,1.4,3.2,1.4h6.9v2h-6.9c-3.8,0-5.9-1.1-5.9-5.2v-7.5c0-3.7,2.8-4.8,6-4.8h1.8c3.2,0,6.1,1.1,6.1,4.8ZM47.9,26.8v3.4h5.5c2.3,0,3.7-.4,3.7-3s-1-3.4-3.6-3.4h-1.9c-2.3,0-3.6.4-3.6,3Z" fill="#fff" stroke="#fff" stroke-miterlimit="10" stroke-width=".5"/>
        <path d="M76.9,26.6v.9c0,3.7-2.9,4.6-6.1,4.6h-5.5c0,.8,0,1.5,0,2.2,0,.6,0,1.2.3,1.7.4.9,1.3,1.4,3.2,1.4h6.9v2h-6.9c-3.8,0-5.9-1.1-5.9-5.2v-7.5c0-3.7,2.8-4.8,6-4.8h1.8c3.2,0,6.1,1.1,6.1,4.8ZM65.4,26.8v3.4h5.5c2.3,0,3.7-.4,3.7-3s-1-3.4-3.6-3.4h-1.9c-2.3,0-3.6.4-3.6,3Z" fill="#fff" stroke="#fff" stroke-miterlimit="10" stroke-width=".5"/>
        <path d="M82.5,26.4c0,1.3.7,1.9,1.7,2.4.5.2,1.1.4,1.8.5.6.1,1.3.2,2,.4,2.7.5,5.5,1.3,5.5,4.8s-3.2,4.8-6.6,4.8h-6.3v-2h6.2c1.9,0,4.4-.2,4.4-2.7s-.7-2-1.7-2.4c-.5-.2-1.1-.4-1.8-.5-.7-.1-1.3-.2-2-.3-2.8-.5-5.5-1.2-5.5-4.9s2.8-4.6,6-4.6h6.2v2h-5.7c-1.9,0-4.1,0-4.1,2.6Z" fill="#fff" stroke="#fff" stroke-miterlimit="10" stroke-width=".5"/>
        <path d="M110.6,26.6v.9c0,3.7-2.9,4.6-6.1,4.6h-5.5c0,.8,0,1.5,0,2.2,0,.6,0,1.2.3,1.7.4.9,1.3,1.4,3.2,1.4h6.9v2h-6.9c-3.8,0-5.9-1.1-5.9-5.2v-7.5c0-3.7,2.8-4.8,6-4.8h1.8c3.2,0,6.1,1.1,6.1,4.8ZM99.1,26.8v3.4h5.5c2.3,0,3.7-.4,3.7-3s-1-3.4-3.6-3.4h-1.9c-2.3,0-3.6.4-3.6,3Z" fill="#fff" stroke="#fff" stroke-miterlimit="10" stroke-width=".5"/>
        <path d="M120.5,39.3l8-22.8h3.3l8.1,22.8h-2.6l-2.5-7.3h-9.4l-2.5,7.3h-2.6ZM126.2,30.1h8l-4-11.9-4,11.9Z" fill="#fff" stroke="#fff" stroke-miterlimit="10" stroke-width=".5"/>
        <path d="M149.8,16.6h7.8v2h-7.4c-2.6,0-4.3.2-4.3,3.3v12.1c0,3.2,1.6,3.3,4.3,3.3h7.4v2.1h-7.8c-3.5,0-6.3-1-6.3-5v-12.7c0-4.1,2.8-5,6.3-5Z" fill="#fff" stroke="#fff" stroke-miterlimit="10" stroke-width=".5"/>
        <path d="M159.8,39.3l8-22.8h3.3l8.1,22.8h-2.6l-2.5-7.3h-9.4l-2.5,7.3h-2.6ZM165.5,30.1h8l-4-11.9-4,11.9Z" fill="#fff" stroke="#fff" stroke-miterlimit="10" stroke-width=".5"/>
        <path d="M198.7,22.6v10.7c0,4-2.2,6-6.6,6h-9.1v-22.8h9.1c4.3,0,6.6,2,6.6,6ZM192.1,18.6h-6.7v18.7h6.8c2.8,0,4.1-1.5,4.1-4.2v-10c0-2.7-1.4-4.5-4.2-4.5Z" fill="#fff" stroke="#fff" stroke-miterlimit="10" stroke-width=".5"/>
        <path d="M218.7,18.6h-12.5v8h10.6v1.9h-10.6v8.8h12.5v2h-14.8v-22.8h14.8v2Z" fill="#fff" stroke="#fff" stroke-miterlimit="10" stroke-width=".5"/>
        <path d="M242.2,39.3h-2.4v-19.4l-6.6,12.8h-2l-6.6-12.8v19.4h-2.4v-22.8h3.1l6.8,13.4,6.7-13.4h3.2v22.8Z" fill="#fff" stroke="#fff" stroke-miterlimit="10" stroke-width=".5"/>
        <path d="M253.6,39.3v-9.4l-7.9-13.3h2.7l6.4,11.3,6.3-11.3h2.7l-7.9,13.3v9.4h-2.4Z" fill="#fff" stroke="#fff" stroke-miterlimit="10" stroke-width=".5"/>
        <path d="M290.1,18.6h-6.8v20.7h-2.3v-20.8h-6.8v-2h15.9v2Z" fill="#fff" stroke="#fff" stroke-miterlimit="10" stroke-width=".5"/>
        <path d="M308.8,21.9v12.2c0,4.6-3.6,5.3-5.7,5.3h-4.3c-2.1,0-5.6-.7-5.6-5.3v-12.2c0-4.6,3.5-5.3,5.6-5.3h4.3c2.1,0,5.7.7,5.7,5.3ZM303.2,18.7h-4.3c-2.3,0-3.2,1-3.2,3.2v12.2c0,3.2,2.1,3.2,3.2,3.2h4.3c1.1,0,3.2,0,3.2-3.2v-12.2c0-2.2-.9-3.2-3.2-3.2Z" fill="#fff" stroke="#fff" stroke-miterlimit="10" stroke-width=".5"/>
        <path d="M316.4,39.3h-2.4v-22.8h2.4v22.8ZM316.7,27.7l8.8-11.1h3.1l-9,11.1,10.1,11.7h-3l-9.9-11.6Z" fill="#fff" stroke="#fff" stroke-miterlimit="10" stroke-width=".5"/>
        <path d="M339.9,39.3v-9.4l-7.9-13.3h2.7l6.4,11.3,6.3-11.3h2.7l-7.9,13.3v9.4h-2.4Z" fill="#fff" stroke="#fff" stroke-miterlimit="10" stroke-width=".5"/>
        <path d="M369,21.9v12.2c0,4.6-3.6,5.3-5.7,5.3h-4.3c-2.1,0-5.6-.7-5.6-5.3v-12.2c0-4.6,3.5-5.3,5.6-5.3h4.3c2.1,0,5.7.7,5.7,5.3ZM363.4,18.7h-4.3c-2.3,0-3.2,1-3.2,3.2v12.2c0,3.2,2.1,3.2,3.2,3.2h4.3c1.1,0,3.2,0,3.2-3.2v-12.2c0-2.2-.9-3.2-3.2-3.2Z" fill="#fff" stroke="#fff" stroke-miterlimit="10" stroke-width=".5"/>
      </g>
    </g>
  </g>
</svg>